<?xml version="1.0" standalone="no"?>
<!DOCTYPE svg PUBLIC "-//W3C//DTD SVG 20010904//EN"
 "http://www.w3.org/TR/2001/REC-SVG-20010904/DTD/svg10.dtd">
<svg version="1.0" xmlns="http://www.w3.org/2000/svg"
 width="2000.000000pt" height="1000.000000pt" viewBox="0 0 2000.000000 1000.000000"
 preserveAspectRatio="xMidYMid meet">
<metadata>
Created by potrace 1.16, written by Peter Selinger 2001-2019
</metadata>
<g transform="translate(0.000000,1000.000000) scale(0.100000,-0.100000)"
fill="#000000" stroke="none">
<path d="M1050 5919 c0 -13 15 -17 71 -22 86 -7 137 -31 164 -77 20 -35 20
-48 20 -1115 0 -1130 -2 -1189 -43 -1274 -10 -19 -29 -43 -44 -54 -44 -33 -70
-13 -120 88 -23 47 -56 101 -72 120 -77 83 -209 67 -257 -31 -63 -131 34 -241
222 -252 257 -14 467 103 577 323 28 57 40 91 65 190 6 25 12 409 16 1020 6
911 7 983 23 1008 23 34 45 45 110 55 33 4 53 12 53 20 0 11 -77 14 -393 15
-354 2 -392 0 -392 -14z"/>
<path d="M13554 5931 c-17 -17 3 -29 61 -34 79 -8 119 -27 142 -70 17 -30 18
-88 21 -797 2 -478 -1 -789 -7 -829 -14 -91 -35 -110 -140 -124 -65 -8 -81
-14 -79 -26 3 -14 77 -16 698 -19 382 -2 714 0 737 3 34 5 44 11 47 28 2 12 9
126 16 252 6 127 12 239 13 250 3 32 -29 30 -37 -2 -16 -64 -79 -176 -132
-232 -133 -144 -310 -211 -558 -211 -132 0 -177 11 -202 48 -18 26 -19 65 -19
827 0 789 0 801 21 835 25 44 56 59 139 67 50 5 65 9 63 21 -3 12 -60 14 -391
16 -214 0 -391 -1 -393 -3z"/>
<path d="M6384 5520 c-49 -55 -52 -55 -649 -55 -590 0 -596 0 -615 51 -17 43
-35 23 -37 -42 -3 -70 -31 -365 -40 -411 -4 -26 -2 -33 10 -33 10 0 32 33 59
86 48 97 134 198 203 238 91 54 217 55 247 3 10 -17 13 -153 13 -607 0 -543
-1 -588 -18 -613 -27 -42 -56 -55 -137 -64 -53 -6 -75 -12 -75 -22 0 -21 779
-20 783 1 2 12 -13 16 -68 21 -90 8 -131 30 -148 82 -10 30 -12 166 -10 612
l3 573 28 27 c24 25 34 28 90 27 43 0 75 -7 105 -23 100 -51 195 -170 226
-281 13 -47 21 -60 34 -58 14 3 18 22 23 123 4 66 10 182 14 258 9 150 5 159
-41 107z"/>
<path d="M15937 5493 c-8 -15 -119 -273 -247 -573 -128 -300 -252 -584 -276
-631 -78 -152 -138 -201 -261 -214 -41 -5 -63 -11 -63 -20 0 -22 24 -24 188
-14 106 7 205 7 292 0 135 -10 160 -8 160 14 0 8 -23 14 -65 18 -140 13 -185
75 -151 208 9 34 48 137 85 228 l69 166 179 3 180 2 102 -221 c141 -305 146
-319 114 -358 -13 -15 -34 -23 -70 -28 -33 -3 -53 -11 -53 -18 0 -22 22 -24
170 -14 86 5 218 5 333 -1 104 -5 194 -7 198 -4 18 11 8 34 -14 34 -61 0 -125
30 -170 80 -60 67 -107 159 -408 810 -141 305 -261 556 -267 558 -6 2 -17 -9
-25 -25z m-20 -575 l70 -153 -135 -3 c-74 -1 -137 -1 -139 2 -6 5 119 306 127
306 4 0 38 -69 77 -152z"/>
<path d="M4205 5475 c-125 -32 -215 -83 -282 -159 -51 -58 -73 -120 -73 -206
0 -165 67 -240 370 -415 170 -98 204 -121 261 -180 63 -64 91 -123 97 -207 11
-155 -78 -246 -232 -236 -137 8 -253 103 -402 330 -48 72 -92 128 -101 128
-13 0 -14 -22 -8 -187 4 -104 11 -197 15 -208 12 -31 98 -73 207 -102 129 -33
307 -42 413 -19 162 34 304 136 365 260 40 82 46 196 15 278 -42 114 -128 184
-404 333 -247 133 -317 206 -324 334 -5 87 24 144 89 179 39 21 55 23 134 20
76 -3 99 -8 148 -33 81 -41 182 -156 246 -282 22 -44 44 -55 55 -27 3 9 6 81
6 160 0 139 -1 146 -24 169 -66 65 -420 109 -571 70z"/>
<path d="M2023 5448 c-10 -17 9 -25 68 -31 78 -7 110 -29 126 -88 8 -30 12
-173 12 -444 1 -435 4 -464 59 -575 15 -31 57 -86 98 -128 119 -120 279 -182
471 -182 115 0 226 24 306 67 76 41 168 136 205 213 61 126 64 148 71 580 7
425 9 439 64 499 29 31 94 61 135 61 24 0 32 4 32 18 0 16 -20 17 -287 17
-245 -1 -288 -3 -288 -15 0 -10 17 -17 54 -23 68 -9 133 -46 160 -90 45 -73
51 -130 51 -482 0 -360 -7 -419 -55 -518 -89 -182 -336 -258 -541 -167 -103
45 -191 166 -220 299 -20 96 -20 837 0 886 19 46 54 66 126 72 47 5 60 9 60
22 0 15 -33 16 -351 16 -193 0 -353 -3 -356 -7z"/>
<path d="M6600 5439 c0 -13 14 -17 60 -22 34 -3 72 -13 86 -22 54 -35 54 -38
54 -650 0 -683 7 -647 -130 -668 -53 -8 -70 -14 -68 -25 4 -23 702 -23 706 0
2 11 -15 17 -68 25 -81 13 -105 30 -120 82 -15 54 -12 1136 3 1180 17 49 53
72 125 78 48 5 62 9 62 22 0 14 -35 16 -355 16 -320 0 -355 -2 -355 -16z"/>
<path d="M7500 5440 c0 -17 7 -20 48 -20 62 0 113 -26 134 -70 17 -32 18 -82
18 -603 0 -614 0 -617 -54 -652 -14 -9 -53 -19 -86 -22 -46 -5 -60 -9 -58 -21
3 -12 57 -14 384 -15 209 0 386 3 393 7 23 14 1 23 -73 29 -108 9 -154 31
-177 81 -16 36 -19 69 -19 285 l0 244 133 -6 c72 -4 172 -13 222 -21 57 -10
93 -12 99 -6 14 14 13 117 0 130 -8 8 -42 8 -120 1 -60 -6 -160 -12 -221 -14
l-113 -3 1 280 c1 155 4 292 8 305 17 60 107 84 238 62 129 -22 227 -100 301
-240 65 -122 72 -114 72 92 0 121 -4 177 -12 185 -9 9 -148 12 -565 12 -546 0
-553 0 -553 -20z"/>
<path d="M8800 5438 c0 -15 9 -18 45 -18 68 0 120 -25 142 -68 17 -35 18 -75
18 -602 0 -613 -1 -627 -53 -654 -15 -8 -55 -17 -90 -21 -50 -6 -62 -10 -60
-23 3 -14 42 -16 353 -15 300 0 350 2 353 15 2 11 -15 17 -68 25 -40 6 -80 19
-90 28 -37 34 -41 101 -38 671 3 533 4 550 23 584 24 39 66 59 133 59 33 1 42
5 42 19 0 16 -24 17 -355 17 -331 0 -355 -1 -355 -17z"/>
<path d="M9710 5438 c0 -14 9 -18 43 -19 59 0 107 -19 131 -52 21 -28 21 -35
21 -621 0 -553 -1 -594 -18 -619 -23 -35 -47 -46 -122 -55 -41 -5 -60 -12 -60
-21 0 -11 59 -14 330 -19 477 -7 542 -5 621 11 205 44 373 156 485 323 71 107
109 244 109 392 -1 182 -61 339 -177 462 -109 116 -237 184 -413 220 -86 17
-136 19 -522 17 -400 -2 -428 -3 -428 -19z m825 -52 c164 -43 276 -178 337
-401 29 -108 32 -402 5 -509 -25 -101 -71 -188 -132 -254 -88 -96 -213 -141
-356 -129 -85 7 -125 29 -153 82 -21 39 -21 51 -21 580 0 525 1 541 20 575 30
52 75 70 170 70 44 0 103 -6 130 -14z"/>
<path d="M11430 5441 c0 -15 10 -19 62 -24 37 -3 71 -13 87 -25 51 -37 52 -51
49 -667 -3 -524 -4 -573 -20 -598 -24 -36 -47 -46 -118 -54 -48 -5 -60 -9 -58
-22 3 -14 59 -16 585 -16 444 0 585 3 594 12 8 8 15 70 20 175 5 90 9 176 11
192 5 54 -21 38 -75 -46 -121 -185 -280 -281 -467 -282 -160 -1 -162 4 -168
363 l-5 274 127 -6 c70 -4 176 -12 237 -19 127 -14 129 -13 129 62 0 72 -5 75
-102 61 -45 -6 -152 -15 -237 -18 l-154 -6 5 269 c4 183 9 277 18 295 19 42
54 54 150 54 77 0 93 -4 154 -34 86 -42 186 -136 238 -223 62 -105 68 -97 68
98 0 95 -4 174 -10 185 -10 18 -27 19 -565 19 -535 0 -555 -1 -555 -19z"/>
<path d="M16803 5448 c-8 -14 8 -28 33 -28 43 0 89 -26 123 -68 30 -39 157
-293 506 -1014 142 -295 150 -308 177 -308 34 0 29 -10 188 360 67 157 125
288 129 293 4 4 79 -141 166 -323 l159 -331 30 3 31 3 210 540 c218 559 270
673 336 749 45 51 128 96 176 96 25 0 33 4 33 18 0 17 -15 18 -240 18 -222 -1
-240 -2 -240 -18 0 -11 8 -18 20 -18 12 0 32 -11 45 -25 22 -21 25 -33 25 -92
0 -38 -6 -92 -14 -121 -17 -66 -259 -732 -266 -732 -3 0 -67 125 -144 278
l-138 277 46 108 c99 235 169 307 299 307 29 0 37 4 37 18 0 16 -16 17 -202
16 -142 -1 -203 -4 -206 -12 -2 -7 8 -16 22 -21 37 -15 49 -46 43 -110 -6 -53
-44 -179 -66 -218 -8 -15 -22 8 -80 127 -74 151 -87 200 -51 200 12 0 20 7 20
18 0 16 -18 17 -240 17 -184 0 -240 -3 -240 -12 0 -7 15 -19 33 -27 56 -23 89
-77 226 -362 l131 -274 -71 -167 c-39 -93 -74 -171 -78 -176 -9 -9 -435 850
-450 907 -13 48 0 76 34 76 17 0 25 6 25 18 0 16 -20 17 -286 17 -157 0 -288
-3 -291 -7z"/>
</g>
</svg>
